<?xml version='1.0' encoding='utf-8'?>
<svg xmlns:xlink="http://www.w3.org/1999/xlink" xmlns="http://www.w3.org/2000/svg" id="Capa_1" data-name="Capa 1" viewBox="0 0 3000 3000"><defs><style>.cls-1{fill:url(#Degradado_sin_nombre_10);}.cls-2{fill:url(#Degradado_sin_nombre_25);}.cls-3{fill:url(#Degradado_sin_nombre_29);}.cls-4{fill:url(#Degradado_sin_nombre_28);}.cls-5{fill:url(#Degradado_sin_nombre_31);}.cls-6{fill:url(#Degradado_sin_nombre_25-2);}.cls-7{fill:url(#Degradado_sin_nombre_25-3);}.cls-8{fill:url(#Degradado_sin_nombre_25-4);}.cls-9{fill:url(#Degradado_sin_nombre_32);}</style><linearGradient id="Degradado_sin_nombre_10" x1="1108.02" y1="715.16" x2="1907.94" y2="2148.98" gradientUnits="userSpaceOnUse"><stop offset="0" stop-color="#ff931e"/><stop offset="0.22" stop-color="#ff7320"/><stop offset="0.57" stop-color="#ff4523"/><stop offset="0.84" stop-color="#ff2824"/><stop offset="1" stop-color="#ff1d25"/></linearGradient><linearGradient id="Degradado_sin_nombre_25" x1="1349.71" y1="1230.92" x2="1649.94" y2="1769.07" gradientUnits="userSpaceOnUse"><stop offset="0" stop-color="#ff931e"/><stop offset="0.03" stop-color="#ff8f1e"/><stop offset="0.54" stop-color="#ff3d23"/><stop offset="0.77" stop-color="#ff1d25"/></linearGradient><linearGradient id="Degradado_sin_nombre_29" x1="1236.82" y1="1618.08" x2="532.65" y2="1887.32" gradientUnits="userSpaceOnUse"><stop offset="0" stop-color="#ff931e"/><stop offset="0.17" stop-color="#ff7e1f"/><stop offset="1" stop-color="#ff1d25"/></linearGradient><linearGradient id="Degradado_sin_nombre_28" x1="735.47" y1="1499.93" x2="2579.61" y2="1499.93" gradientUnits="userSpaceOnUse"><stop offset="0" stop-color="#ff931e"/><stop offset="0.16" stop-color="#ff8d1e"/><stop offset="0.35" stop-color="#ff7e1f"/><stop offset="0.57" stop-color="#ff6321"/><stop offset="0.81" stop-color="#ff3f23"/><stop offset="1" stop-color="#ff1d25"/></linearGradient><linearGradient id="Degradado_sin_nombre_31" x1="735.47" y1="1160.8" x2="2579.61" y2="1160.8" gradientUnits="userSpaceOnUse"><stop offset="0" stop-color="#ff931e"/><stop offset="0.04" stop-color="#ff8d1e"/><stop offset="0.35" stop-color="#ff5d21"/><stop offset="0.63" stop-color="#ff3a23"/><stop offset="0.85" stop-color="#ff2525"/><stop offset="1" stop-color="#ff1d25"/></linearGradient><linearGradient id="Degradado_sin_nombre_25-2" x1="2638.33" y1="923.68" x2="2762.26" y2="1145.82" xlink:href="#Degradado_sin_nombre_25"/><linearGradient id="Degradado_sin_nombre_25-3" x1="1349.69" y1="1230.93" x2="1649.92" y2="1769.08" xlink:href="#Degradado_sin_nombre_25"/><linearGradient id="Degradado_sin_nombre_25-4" x1="2073.76" y1="513.3" x2="2507.33" y2="513.3" xlink:href="#Degradado_sin_nombre_25"/><linearGradient id="Degradado_sin_nombre_32" x1="471.52" y1="1502.47" x2="2528.56" y2="1502.47" gradientUnits="userSpaceOnUse"><stop offset="0" stop-color="#ff931e"/><stop offset="0.13" stop-color="#ff8f1e"/><stop offset="0.26" stop-color="#ff841f"/><stop offset="0.38" stop-color="#ff7120"/><stop offset="0.51" stop-color="#ff5622"/><stop offset="0.62" stop-color="#ff3424"/><stop offset="0.69" stop-color="#ff1d25"/></linearGradient></defs><circle class="cls-1" cx="1545.83" cy="1499.93" r="1033.78"/><circle class="cls-1" cx="1545.83" cy="1499.93" r="1033.78"/><path class="cls-2" d="M2799.81,1057.88c3,9.34-1.75-24.18-1.63-11.73.08,8.13,4.15-23.63,1.9-14.57-.32,1.31-1,2.63-1.22,3.94,3.24-18.32,8.64-17.7,2.75-8.35-8.83,14,13.25-15.06,3.85-4.71a213.28,213.28,0,0,1-18.16,17.92c-3.68,3.21-7.53,6.2-11.29,9.31s17.72-13.3,6.35-4.94c-2.72,2-5.42,4-8.16,6-53.94,38.71-113.51,69.88-172.62,99.8-89.08,45.1-180.27,86-272,125.3l-18.64,7.94-9.42,4c-8.89,3.76,16.46-6.91,3.14-1.33q-21.3,8.92-42.63,17.78-42.29,17.49-84.76,34.54-91.66,36.82-184,71.83-410.36,155.81-830.76,283.66C933.86,1764,703,1829.35,468.8,1877.34c-41.23,8.44-82.6,16.26-124.16,22.87q-13,2.08-26.1,4L306,1906c-11.27,1.59,19.73-2.56,8.53-1.15l-7.17.93c-15.48,2-31,3.66-46.54,5-24.12,2-48.5,3.39-72.69,1.85-4.44-.28-22.65-2.49-5.14-.12,17.16,2.31.78,0-3.61-1-3.28-.77-6.4-1.87-9.63-2.81-9-2.62,19.54,10,11.81,5a31.32,31.32,0,0,0-4-2.18c-8.63-3.88,16.59,15.82,8.34,6.14-3.23-3.79,13.49,18.7,8.65,11.07s7.59,20.84,5.34,12.78c-2.55-9.15,1.53,24.58,1.82,12-.24,10.48-2.58,22.95-.56,10.6-3.28,20-8.59,17.74-2.88,8.68.8-1.28,1.79-2.46,2.56-3.75,2.59-4.34-14.85,17.67-6.42,8.46a222.52,222.52,0,0,1,18.16-17.92c3.69-3.2,7.51-6.23,11.29-9.31,5.94-4.85-17.82,13.39-6.35,4.94,2.72-2,5.43-4,8.17-6,11.09-8,22.48-15.5,34-22.79,28.65-18.11,58.23-34.76,88.1-50.76,80.62-43.17,163.69-81.78,247.28-118.8q37.53-16.62,75.27-32.75,10.25-4.38,20.52-8.73c3.14-1.34,6.29-2.65,9.43-4-17.48,7.53-7.41,3.13-3.12,1.33q21.31-9,42.68-17.79,87.66-36.24,176.07-70.64,405.7-158.18,821.94-287.75c238.33-74.85,478.94-144.65,722.89-198.88,44.92-10,90-19.37,135.25-27.71q29.55-5.44,59.22-10.21,13-2.09,26.11-4c4.58-.67,9.17-1.3,13.76-2,8.21-1.16-20.56,2.7-9.76,1.32l7.17-.93c29.23-3.68,58.64-6.65,88.11-7.31,10.83-.24,21.68-.16,32.5.58,8.21.57,26.06,4.48-4.19-1,4,.73,8.07,1.25,12.06,2.2,3.1.74,6.07,1.81,9.12,2.7,9.08,2.62-19.46-9.89-11.81-5,1.06.68,2.32,1.07,3.36,1.8,9.35,6.56-16.92-14.87-8.13-6.22,6,5.94-12.89-18.47-8.39-10.85,4.93,8.37-7.69-19.62-5.36-13.08,12.07,33.82,47.48,60.1,84.66,48.07,33.34-10.79,61-48.36,48.07-84.66-21.75-61-84.36-72.28-141.88-72.26-71.49,0-143.53,12.45-213.69,24.92C2350.52,1014.18,2127.52,1076,1907.13,1141q-433.12,127.7-856.81,285.42c-229,85-457.4,175.06-677.16,282-67.29,32.77-134.71,66.91-197.23,108.25-41.47,27.43-94.69,62.66-108.59,114-10.36,38.23,5.72,77.09,38.76,98.2,22.09,14.12,47.16,18,72.71,20.54,61.58,6.15,126-4.89,186.59-14,213.58-32.27,424-89.66,631.48-148.76,286-81.47,569-174,848.62-275.09,242.63-87.68,484.05-181.18,718-290.11,75.75-35.26,151.21-72,223-114.89,47.61-28.42,100.24-60.06,131.89-106.92,15-22.18,22.41-52.18,14.1-78.34-10.87-34.27-48.34-59.83-84.66-48.07C2813.52,984.34,2788.15,1021.13,2799.81,1057.88Z"/><circle class="cls-3" cx="1545.83" cy="1499.93" r="1033.78"/><path class="cls-4" d="M1545.83,466.15c-328.38,0-621,153.12-810.36,391.86,364,68.6,639.74,394.09,639.74,785.3,0,306.59-169.35,572.83-417.83,706.68,167,115.83,369.81,183.71,588.45,183.71,570.94,0,1033.78-462.83,1033.78-1033.77S2116.77,466.15,1545.83,466.15Z"/><path class="cls-5" d="M1219.24,1164.9c117.56-51.61,248.72-80.44,387-80.44,473.54,0,863.09,337.84,910.57,771a1031.82,1031.82,0,0,0,62.76-355.53c0-570.94-462.84-1033.78-1033.78-1033.78-328.38,0-621,153.12-810.36,391.86C932.51,895.14,1103.67,1007.55,1219.24,1164.9Z"/><path class="cls-6" d="M2510.23,1126.85q42.8-9,85.81-17,29.55-5.44,59.22-10.21,13-2.09,26.11-4c4.58-.67,9.17-1.3,13.76-2,8.21-1.16-20.56,2.7-9.76,1.32l7.17-.93c29.23-3.68,58.64-6.65,88.11-7.31,10.83-.24,21.68-.16,32.5.58,8.21.57,26.06,4.48-4.19-1,4,.73,8.07,1.25,12.06,2.2,3.1.74,6.07,1.81,9.12,2.7,9.08,2.62-19.46-9.89-11.81-5,1.06.68,2.32,1.07,3.36,1.8,9.35,6.56-16.92-14.87-8.13-6.22,6,5.94-12.89-18.47-8.39-10.85,4.93,8.37-7.69-19.62-5.36-13.08,12.07,33.82,47.48,60.1,84.66,48.07,33.34-10.79,61-48.36,48.07-84.66-21.75-61-84.36-72.28-141.88-72.26-71.49,0-143.53,12.45-213.69,24.92q-63.57,11.29-126.79,24.74"/><path class="cls-7" d="M521.38,1639.31q-74.67,33.45-148.22,69.17c-67.29,32.77-134.71,66.91-197.23,108.25-41.47,27.43-94.69,62.66-108.59,114-10.36,38.23,5.72,77.09,38.76,98.2,22.09,14.12,47.16,18,72.71,20.54,61.58,6.15,126-4.89,186.59-14,213.58-32.27,424-89.66,631.48-148.76,286-81.47,569-174,848.62-275.09,242.63-87.68,484.05-181.18,718-290.11,75.75-35.26,151.21-72,223-114.89,47.61-28.42,100.24-60.06,131.89-106.92,15-22.18,22.41-52.18,14.1-78.34-10.87-34.27-48.34-59.83-84.66-48.07-34.36,11.12-59.73,47.91-48.07,84.66,3,9.34-1.75-24.18-1.63-11.73.08,8.13,4.15-23.63,1.9-14.57-.32,1.31-1,2.63-1.22,3.94,3.24-18.32,8.64-17.7,2.75-8.35-8.83,14,13.25-15.06,3.85-4.71a213.28,213.28,0,0,1-18.16,17.92c-3.68,3.21-7.53,6.2-11.29,9.31s17.72-13.3,6.35-4.94c-2.72,2-5.42,4-8.16,6-53.94,38.71-113.51,69.88-172.62,99.8-89.08,45.1-180.27,86-272,125.3l-18.64,7.94-9.42,4c-8.89,3.76,16.46-6.91,3.14-1.33q-21.3,8.92-42.63,17.78-42.29,17.49-84.76,34.54-91.66,36.82-184,71.83-410.36,155.81-830.76,283.66C933.86,1764,703,1829.35,468.8,1877.34c-41.23,8.44-82.6,16.26-124.16,22.87q-13,2.08-26.1,4L306,1906c-11.27,1.59,19.73-2.56,8.53-1.15l-7.17.93c-15.48,2-31,3.66-46.54,5-24.12,2-48.5,3.39-72.69,1.85-4.44-.28-22.65-2.49-5.14-.12,17.16,2.31.78,0-3.61-1-3.28-.77-6.4-1.87-9.63-2.81-9-2.62,19.54,10,11.81,5a31.32,31.32,0,0,0-4-2.18c-8.63-3.88,16.59,15.82,8.34,6.14-3.23-3.79,13.49,18.7,8.65,11.07s7.59,20.84,5.34,12.78c-2.55-9.15,1.53,24.58,1.82,12-.24,10.48-2.58,22.95-.56,10.6-3.28,20-8.59,17.74-2.88,8.68.8-1.28,1.79-2.46,2.56-3.75,2.59-4.34-14.85,17.67-6.42,8.46a222.52,222.52,0,0,1,18.16-17.92c3.69-3.2,7.51-6.23,11.29-9.31,5.94-4.85-17.82,13.39-6.35,4.94,2.72-2,5.43-4,8.17-6,11.09-8,22.48-15.5,34-22.79,28.65-18.11,58.23-34.76,88.1-50.76,66-35.33,133.61-67.61,201.81-98.46"/><path class="cls-8" d="M2177.37,681.42c43.74-39.57,88.36-78.19,134.43-115q11-8.82,22.22-17.47l-13.93,10.77c37.88-29.23,77.7-60,122.06-78.84l-16.44,6.94c8-3.36,16.33-6.3,25-7.53l-18.29,2.46a40.89,40.89,0,0,1,10.13-.18l-18.3-2.46a24.17,24.17,0,0,1,5.8,1.51l-16.44-6.94a19,19,0,0,1,3.95,2.3l-13.93-10.76c.24.19.47.38.69.58C2418.38,478.86,2433.9,487,2453,487c16.88,0,37-7.5,48.66-20.16,23.62-25.73,29.2-72.33,0-97.33-27.52-23.57-59.34-29-94.15-20.64-23.13,5.53-45.53,17.23-66,29.12-61.69,35.78-117.7,82.41-172.09,128.19q-55.89,47.07-109.72,96.52"/><path class="cls-9" d="M716.89,2117.72q-44.16,60.84-86.4,123c-42.22,62.39-83.84,126-117.68,193.46-23.23,46.3-50.95,102.36-38,155.73,9.49,39,44.63,62.52,83.07,65,26,1.71,50.8-8.73,73.9-19.17,56-25.32,106-67,153.63-105.06,72.39-57.83,141.18-120.17,208.66-183.62,88.77-83.46,175.05-169.56,259.88-257q150.8-155.48,295.7-316.51,154.2-170.8,302.66-346.7,134-158.81,262.27-322.27c73.93-94.6,146.55-190.31,215.53-288.59,48-68.43,95.05-138,136-211,27.83-49.65,56.75-103.08,62.07-160.64,2.43-26.3-6.56-56.8-26.54-74.9-26.67-24.17-71.34-28.31-97.33,0-24.2,26.36-28.49,71.51,0,97.33a18.88,18.88,0,0,1,2.16,2.31l-10.76-13.93a21.09,21.09,0,0,1,2.36,4.09l-6.94-16.44a29.71,29.71,0,0,1,1.89,7.24l-2.46-18.3a58.75,58.75,0,0,1-.3,14.87l2.46-18.3c-2.4,17.34-8.78,34-15.52,50.1l6.94-16.44c-23.07,54.46-54.46,105.54-86.09,155.36-47.56,74.9-98.8,147.47-151.26,219q-53.72,73.26-109.36,145.08l10.76-13.93Q1920,1133.44,1785,1293.93q-151.2,180.58-308.7,355.78-149.21,166.17-304.15,327.09c-87.71,90.82-176.95,180.21-268.8,266.84-69.55,65.6-140.47,130.09-215.2,189.78q-11,8.82-22.23,17.47l13.93-10.76c-37.88,29.22-77.69,60-122,78.83L574.2,2512c-8,3.36-16.34,6.3-25,7.53l18.3-2.46a40.41,40.41,0,0,1-10.13.18l18.29,2.46a24.67,24.67,0,0,1-5.79-1.5l16.44,6.93a18.53,18.53,0,0,1-4-2.3l13.93,10.76a18.18,18.18,0,0,1-2.86-2.89l10.77,13.93a20.31,20.31,0,0,1-2.36-4.09l6.93,16.44a29.71,29.71,0,0,1-1.89-7.24l2.46,18.3a59.23,59.23,0,0,1,.3-14.87l-2.46,18.3c2.4-17.33,8.78-34.05,15.52-50.1l-6.94,16.44c23.08-54.46,54.47-105.54,86.09-155.36,34-53.61,70-106,106.89-157.73"/></svg>